<?xml version="1.0" standalone="no"?>
<!DOCTYPE svg PUBLIC "-//W3C//DTD SVG 20010904//EN"
 "http://www.w3.org/TR/2001/REC-SVG-20010904/DTD/svg10.dtd">
<svg version="1.0" xmlns="http://www.w3.org/2000/svg"
 width="2760.000000pt" height="1504.000000pt" viewBox="0 0 2760.000000 1504.000000"
 preserveAspectRatio="xMidYMid meet">

<g transform="translate(0.000000,1504.000000) scale(0.100000,-0.100000)"
fill="#000000" stroke="none">
<path d="M15435 13369 c-95 -27 -193 -119 -217 -202 -6 -23 -13 -43 -14 -45
-1 -2 -45 10 -96 27 -378 121 -789 18 -1071 -266 -130 -132 -204 -249 -257
-413 -26 -79 -36 -96 -89 -150 -117 -119 -178 -291 -167 -470 10 -163 35 -234
168 -475 48 -89 98 -188 109 -220 40 -111 35 -255 -13 -401 -16 -49 -18 -68
-9 -77 16 -16 42 13 79 88 43 85 62 164 68 285 8 133 -14 241 -84 430 -58 157
-72 223 -71 334 l0 81 25 -90 c40 -144 85 -226 179 -325 108 -115 115 -135
115 -341 0 -122 3 -159 14 -168 23 -19 80 -24 136 -12 65 14 77 6 86 -57 10
-67 19 -81 64 -88 32 -5 40 -11 45 -34 8 -39 35 -59 86 -68 40 -7 46 -12 74
-62 39 -71 80 -95 160 -95 84 1 142 35 283 168 63 59 125 110 139 113 64 16
210 -74 287 -177 l47 -62 -71 -38 c-147 -77 -302 -219 -409 -374 -27 -38 -94
-152 -150 -252 -170 -308 -256 -430 -526 -743 -252 -292 -347 -371 -547 -450
-73 -30 -197 -82 -275 -116 -133 -58 -204 -95 -648 -333 -172 -92 -565 -281
-775 -373 -63 -27 -220 -86 -349 -129 -159 -54 -310 -115 -475 -190 -132 -61
-281 -129 -331 -151 -49 -22 -105 -51 -122 -65 -68 -50 -23 -123 75 -123 22 0
127 25 233 56 233 66 391 101 508 110 l86 6 -80 -78 c-113 -111 -149 -190
-105 -234 42 -42 98 -22 276 98 70 48 169 103 242 135 146 65 176 87 242 174
91 120 166 156 435 209 707 138 1008 216 1299 338 209 88 259 126 731 549 346
311 651 610 710 697 63 92 126 237 191 440 31 96 81 252 110 345 109 339 218
505 410 620 80 48 85 44 16 -14 -134 -112 -226 -278 -322 -581 -136 -428 -189
-563 -324 -825 -135 -262 -380 -716 -422 -781 -42 -67 -135 -141 -306 -243
-75 -44 -217 -141 -316 -215 -509 -379 -907 -639 -1081 -708 -98 -38 -249 -28
-486 34 -140 37 -243 41 -345 14 -78 -21 -592 -180 -635 -196 -66 -25 -84 -74
-46 -121 19 -23 23 -24 175 -24 134 0 151 -2 130 -13 -19 -10 -24 -20 -22 -39
9 -76 141 -93 355 -48 157 34 215 31 423 -20 169 -41 316 -54 409 -36 34 7
125 37 204 67 78 30 242 93 365 140 631 239 1175 483 1392 624 122 80 269 228
377 381 78 110 171 252 532 809 162 249 323 485 366 535 25 28 -26 -75 -173
-355 -132 -251 -264 -472 -384 -643 -44 -62 -68 -105 -66 -119 8 -56 141 -117
276 -126 l83 -5 81 -86 c99 -105 171 -169 354 -316 262 -211 379 -368 475
-634 19 -51 45 -104 58 -118 14 -13 86 -58 160 -100 75 -42 228 -127 340 -190
112 -63 267 -146 345 -185 77 -38 142 -71 145 -74 3 -3 -41 11 -97 31 -119 41
-275 109 -527 227 -410 194 -729 323 -912 369 -173 44 -365 62 -583 56 -369
-10 -573 -71 -1086 -323 -349 -171 -433 -194 -701 -195 -204 0 -328 24 -621
118 -278 88 -260 85 -332 56 -124 -50 -265 -39 -506 37 -162 52 -246 59 -404
35 -221 -34 -328 -19 -379 54 -20 27 -28 31 -69 31 -57 1 -124 15 -174 36 -41
18 -64 59 -54 99 5 20 2 27 -18 36 -21 10 -32 7 -71 -17 -26 -16 -63 -39 -83
-51 -58 -36 -110 -47 -154 -34 -71 22 -84 71 -43 160 33 71 25 81 -65 81 -135
0 -351 -48 -635 -141 -177 -58 -197 -62 -285 -63 -84 0 -105 3 -184 33 -100
38 -156 80 -156 118 0 15 -20 50 -49 87 -63 80 -85 115 -182 298 -45 84 -104
187 -131 229 -90 142 -263 282 -398 325 -37 11 -94 17 -176 18 -96 1 -126 5
-147 19 -72 47 -254 48 -397 2 -252 -81 -397 -195 -652 -515 -122 -154 -167
-197 -260 -250 -32 -17 -58 -38 -58 -45 0 -7 19 -21 43 -30 l42 -17 -34 -29
c-19 -15 -59 -40 -89 -54 -64 -30 -64 -32 -2 -162 70 -148 161 -218 298 -230
l70 -6 22 -60 c32 -88 106 -244 142 -300 25 -39 43 -53 103 -82 69 -33 74 -37
89 -82 9 -26 27 -111 41 -189 28 -160 34 -181 64 -208 27 -24 84 -17 153 18
27 14 54 26 59 26 5 0 17 -17 28 -38 25 -49 43 -64 88 -71 30 -5 38 -12 45
-36 11 -41 33 -55 90 -55 47 0 48 -1 87 -59 76 -112 137 -138 246 -106 76 22
126 70 241 231 l93 132 67 13 66 13 55 84 c65 99 200 243 292 312 150 113 340
184 571 215 38 5 29 -1 -60 -38 -257 -106 -420 -206 -556 -342 -109 -109 -182
-217 -293 -433 -52 -103 -94 -172 -115 -190 -20 -17 -102 -56 -205 -97 -263
-103 -488 -224 -672 -362 -38 -29 -69 -48 -69 -43 0 34 217 262 323 338 52 37
55 47 31 95 -35 69 -84 124 -136 153 -50 27 -60 29 -164 29 -107 0 -112 -1
-185 -37 -41 -20 -93 -56 -116 -80 -64 -67 -336 -471 -392 -583 -66 -134 -87
-200 -102 -325 -29 -250 25 -534 118 -622 63 -60 179 -82 443 -82 262 -1 327
15 645 156 613 272 994 502 1288 778 43 40 175 176 293 301 171 182 231 239
300 285 121 81 228 116 368 122 101 4 240 -10 250 -26 2 -4 -48 -8 -113 -9
-194 -3 -334 -51 -467 -157 -89 -71 -176 -172 -172 -199 3 -23 62 -45 354
-132 202 -60 368 -97 519 -116 161 -21 473 -15 795 15 749 69 749 69 1140 70
391 1 474 -4 830 -50 210 -27 257 -41 278 -87 8 -17 15 -68 16 -120 1 -85 3
-92 22 -95 17 -2 27 10 54 70 45 101 117 319 140 428 49 224 62 500 35 735
-17 142 -56 345 -85 439 -11 33 -18 61 -17 61 7 3 217 99 367 167 344 156 535
206 820 215 348 11 610 -55 1147 -288 508 -220 634 -273 746 -315 407 -152
816 -249 1200 -285 175 -16 555 -6 772 20 540 65 518 63 760 58 241 -6 349
-18 540 -63 166 -39 175 -40 175 -15 0 25 -41 47 -188 103 -130 48 -264 83
-414 108 -146 24 -536 44 -730 38 l-148 -5 0 92 c0 272 -54 636 -126 855 -35
106 -135 309 -198 404 -119 179 -280 334 -486 468 -99 65 -158 96 -570 296
-91 44 -201 103 -245 132 -116 75 -264 230 -364 380 -132 197 -178 299 -473
1055 -93 240 -238 532 -339 685 -138 210 -331 384 -521 469 -35 16 -137 54
-228 86 -198 68 -325 127 -434 199 -74 50 -196 161 -185 169 2 2 30 16 61 31
236 113 306 377 160 601 -39 61 -119 142 -161 165 -23 12 -22 13 30 42 72 39
113 80 141 142 19 43 23 67 22 151 0 122 -19 198 -80 321 -84 171 -226 305
-382 360 -71 25 -204 32 -267 13z m237 -59 c221 -68 415 -327 443 -591 9 -89
-8 -168 -49 -222 -34 -45 -123 -97 -167 -97 -24 0 -49 -16 -49 -31 0 -4 35
-32 79 -62 130 -92 198 -188 221 -315 32 -177 -77 -341 -265 -397 -22 -7 -41
-19 -43 -27 -6 -29 85 -135 174 -202 117 -87 287 -170 509 -246 99 -34 207
-76 240 -92 305 -153 527 -444 760 -998 15 -36 71 -180 125 -320 226 -591 329
-794 517 -1020 129 -154 260 -250 493 -362 80 -39 222 -108 315 -153 605 -295
902 -687 1009 -1336 28 -170 46 -378 46 -538 l0 -104 163 7 c187 8 550 -7 723
-29 112 -15 249 -44 241 -51 -1 -2 -45 1 -97 7 -108 12 -416 14 -517 4 -37 -4
-174 -20 -303 -35 -356 -44 -511 -53 -735 -47 -227 6 -375 24 -620 72 -407 82
-671 172 -1250 425 -751 329 -992 400 -1360 400 -241 0 -477 -45 -701 -135
-131 -53 -583 -260 -597 -274 -6 -6 -1 -34 11 -73 53 -162 87 -348 104 -566
21 -271 -16 -564 -103 -826 -42 -125 -59 -158 -59 -115 -1 43 -36 107 -70 124
-56 29 -382 73 -715 96 -317 22 -870 2 -1375 -51 -443 -45 -831 -51 -1040 -16
-187 32 -710 183 -710 205 0 5 38 45 85 90 100 94 207 152 325 177 74 16 398
22 421 9 17 -11 49 6 49 26 0 15 -16 28 -63 49 -109 49 -211 70 -343 70 -135
0 -213 -16 -321 -65 -140 -64 -211 -125 -448 -380 -360 -388 -567 -549 -1025
-795 -147 -79 -229 -118 -510 -245 -317 -142 -384 -158 -640 -158 -189 1 -317
18 -373 50 -47 28 -93 126 -113 243 -24 140 -15 399 16 495 33 102 107 244
196 375 43 63 108 160 145 215 106 156 160 205 260 236 124 39 240 18 308 -56
23 -25 47 -57 53 -71 12 -25 10 -29 -22 -52 -19 -14 -87 -78 -151 -141 -145
-145 -259 -310 -259 -376 0 -39 26 -31 89 28 197 182 484 350 824 482 209 81
213 84 325 300 51 98 117 215 146 259 59 89 177 211 271 281 74 55 272 158
422 219 212 87 265 114 261 133 -5 27 -56 27 -234 -1 -320 -50 -488 -122 -693
-296 -63 -54 -175 -183 -224 -261 -39 -61 -51 -69 -101 -69 -47 0 -73 -24
-165 -154 -130 -185 -152 -205 -244 -226 -69 -15 -99 0 -154 79 -57 79 -64 85
-128 91 -47 5 -50 7 -56 39 -8 40 -22 51 -66 51 -33 0 -51 17 -85 79 -10 17
-24 34 -33 37 -9 4 -52 -10 -95 -30 -117 -55 -125 -49 -150 124 -19 128 -51
248 -72 275 -11 14 -48 38 -82 54 -33 15 -69 37 -78 47 -27 31 -134 261 -158
341 l-22 72 -81 -1 c-84 -1 -114 8 -179 53 -33 24 -91 111 -117 177 l-20 51
43 20 c51 25 136 108 136 132 0 10 -10 24 -22 30 -22 12 -22 12 8 33 61 43
149 135 228 236 228 295 376 413 619 495 137 46 299 44 367 -5 23 -16 42 -19
146 -17 191 2 293 -42 444 -193 89 -88 80 -75 273 -427 34 -62 88 -150 121
-195 32 -46 63 -98 68 -116 15 -55 66 -95 173 -136 173 -66 251 -62 537 30 95
30 228 69 295 84 124 30 300 56 310 46 3 -3 0 -19 -6 -37 -29 -84 -4 -159 62
-190 78 -35 167 -17 267 55 48 34 50 35 50 13 0 -39 38 -87 85 -108 24 -11 82
-25 127 -32 69 -10 87 -16 105 -38 13 -14 46 -37 75 -50 44 -19 70 -23 153
-23 55 0 134 6 175 14 41 8 118 13 170 13 79 -1 115 -7 214 -37 196 -61 242
-69 366 -69 86 0 126 4 160 17 80 32 89 31 281 -33 338 -111 463 -135 694
-135 253 -1 356 27 650 172 398 197 586 271 787 311 362 72 732 48 1077 -71
142 -49 448 -180 766 -328 364 -170 528 -232 793 -300 121 -31 162 -35 169
-15 6 20 -15 31 -202 114 -222 98 -393 185 -670 341 -110 62 -240 135 -290
162 -139 78 -148 86 -180 175 -106 294 -227 453 -530 696 -82 66 -208 180
-280 252 l-130 132 -85 6 c-88 6 -182 34 -221 66 l-22 18 65 94 c134 192 251
393 458 789 62 118 148 277 192 353 75 130 88 167 55 167 -17 0 -111 -97 -192
-199 -94 -116 -192 -256 -367 -524 -721 -1098 -725 -1104 -947 -1249 -203
-133 -772 -391 -1346 -610 -607 -232 -574 -221 -658 -226 -92 -5 -189 8 -347
49 -149 39 -286 47 -390 24 -141 -31 -198 -38 -254 -31 -31 4 -56 11 -56 15 0
4 46 22 103 41 178 57 207 70 207 90 0 10 -7 20 -15 23 -14 6 -119 -8 -290
-38 -113 -19 -289 -22 -311 -4 -23 19 -2 33 91 63 659 209 667 210 899 152
252 -64 416 -66 542 -7 205 96 627 374 1009 666 139 106 254 184 413 279 171
103 216 145 288 267 92 157 395 728 468 880 80 167 147 347 226 604 34 110 78
238 97 285 86 210 202 350 372 450 51 31 93 60 92 65 -1 6 -34 9 -74 9 -132
-3 -254 -62 -377 -184 -133 -132 -196 -254 -301 -583 -217 -684 -228 -704
-575 -1033 -277 -264 -743 -679 -867 -772 -207 -157 -707 -318 -1372 -442
-454 -84 -531 -116 -635 -259 -56 -77 -105 -112 -234 -166 -66 -27 -155 -77
-241 -135 -146 -97 -190 -119 -207 -102 -18 18 21 74 129 184 120 122 126 141
49 146 -105 7 -410 -53 -679 -134 -144 -43 -208 -52 -225 -32 -13 17 -27 10
425 217 183 84 331 144 495 200 274 93 254 85 399 151 299 137 617 294 873
432 337 182 462 242 706 339 101 40 212 91 245 113 85 56 337 313 495 504 182
221 278 360 406 592 139 250 187 321 291 430 97 102 184 170 296 230 43 23 77
48 77 57 0 8 -16 39 -36 69 -78 117 -246 234 -336 234 -54 0 -67 -9 -199 -134
-116 -111 -176 -147 -245 -148 -62 -1 -88 16 -123 82 -33 61 -45 70 -91 70
-35 0 -60 23 -60 55 0 35 -27 57 -61 50 -32 -7 -43 8 -54 76 -10 68 -46 82
-162 64 -41 -6 -54 -5 -58 6 -3 8 -6 84 -8 169 -3 189 -12 214 -120 328 -110
115 -158 223 -196 439 -15 84 -20 98 -36 98 -14 0 -25 -14 -39 -50 -17 -42
-20 -73 -20 -190 0 -154 2 -166 74 -360 52 -140 80 -258 79 -327 l0 -43 -18
60 c-19 66 -38 104 -147 305 -85 156 -120 256 -135 385 -21 175 30 327 154
462 52 56 69 84 87 139 96 287 291 508 556 631 132 61 249 86 404 87 150 1
241 -15 372 -66 43 -16 82 -27 87 -23 5 3 15 30 21 60 36 172 213 257 412 195z"/>
<path d="M15959 12193 c-1 -5 0 -66 1 -138 1 -151 -17 -242 -74 -355 -23 -44
-31 -70 -23 -71 43 -4 114 26 160 70 16 14 41 49 55 76 24 45 27 61 27 150 0
86 -3 106 -24 145 -45 85 -117 158 -122 123z m92 -188 c27 -98 -6 -221 -77
-285 -24 -22 -26 -23 -21 -5 3 11 18 58 32 104 19 62 25 106 25 175 1 83 2 89
16 71 8 -11 19 -38 25 -60z"/>
<path d="M8065 5477 c-525 -319 -996 -623 -1133 -730 -303 -237 -368 -408
-317 -837 15 -126 67 -406 78 -417 4 -3 12 -3 20 0 15 6 72 279 103 487 25
177 45 239 102 327 43 66 127 124 235 160 82 27 83 27 420 31 l337 3 0 108 0
108 -112 6 c-62 4 -179 7 -260 7 -83 0 -148 4 -148 9 0 5 109 92 242 192 382
289 566 445 600 513 28 55 46 109 41 124 -9 25 -42 10 -208 -91z m110 -25
c-42 -64 -377 -337 -732 -597 -159 -116 -183 -139 -165 -157 5 -5 119 -11 253
-14 134 -3 263 -7 287 -10 l42 -5 0 -59 0 -59 -322 -3 c-305 -4 -327 -5 -393
-27 -180 -60 -273 -143 -331 -298 -15 -39 -37 -143 -54 -252 -32 -204 -50
-295 -56 -288 -3 2 -14 67 -26 143 -28 188 -31 424 -5 509 41 133 114 230 269
352 116 92 507 347 1023 667 105 65 199 124 210 131 30 19 30 11 0 -33z"/>
</g>
</svg>
